<?xml version="1.0" standalone="no"?><!DOCTYPE svg PUBLIC "-//W3C//DTD SVG 1.1//EN" "http://www.w3.org/Graphics/SVG/1.1/DTD/svg11.dtd"><svg t="1744554577366" class="icon" viewBox="0 0 1047 1024" version="1.1" xmlns="http://www.w3.org/2000/svg" p-id="14564" xmlns:xlink="http://www.w3.org/1999/xlink" width="204.4921875" height="200"><path d="M149.239358 291.32404m40.585684 0l175.585265 0q40.585684 0 40.585684 40.585684l0 0q0 40.585684-40.585684 40.585684l-175.585265 0q-40.585684 0-40.585684-40.585684l0 0q0-40.585684 40.585684-40.585684Z" p-id="14565"></path><path d="M149.239358 478.945859m40.585684 0l175.585265 0q40.585684 0 40.585684 40.585684l0 0q0 40.585684-40.585684 40.585684l-175.585265 0q-40.585684 0-40.585684-40.585684l0 0q0-40.585684 40.585684-40.585684Z" p-id="14566"></path><path d="M149.239358 666.579275m40.585684 0l175.585265 0q40.585684 0 40.585684 40.585684l0 0q0 40.585684-40.585684 40.585684l-175.585265 0q-40.585684 0-40.585684-40.585684l0 0q0-40.585684 40.585684-40.585684Z" p-id="14567"></path><path d="M1038.170202 661.419095v-401.218477c0-33.257069-27.517094-60.298731-61.330767-60.29873H557.009524V60.321922c0-33.257069-27.517094-60.298731-61.330767-60.29873H61.319171C27.505498 0.023192 0 27.088045 0 60.321922v835.125823c0 33.257069 27.505498 60.298731 61.319171 60.29873h511.785475a288.378679 288.378679 0 0 0 474.655373-220.113558 289.654229 289.654229 0 0 0-9.589817-74.213822zM81.171368 874.598299V81.171368h394.666788v139.545178c0 33.257069 27.505498 60.298731 61.31917 60.29873h419.841508v244.615716a288.45985 288.45985 0 0 0-450.419922 348.967307z m678.221568 68.230333c-114.242903 0-207.195715-92.952812-207.195715-207.195715s92.941216-207.195715 207.195715-207.195715c92.53536 0 171.086052 60.959697 197.605898 144.832912a207.566784 207.566784 0 0 1 0 124.71401c-26.519846 83.873215-105.070538 144.844508-197.605898 144.844508z" p-id="14568"></path><path d="M759.392936 575.70213l-57.678055 90.587247-103.968927 26.867723 68.323101 82.841179-6.574881 107.192589 99.898762-39.426093 99.910358 39.426093-6.598072-107.192589 68.3231-82.841179-103.968927-26.867723z m23.736827 202.696502l-23.771615-9.369495-23.771615 9.369495 1.565448-25.511001-16.234273-19.713047 24.745671-6.389346 13.717961-21.5452 13.729557 21.5452 24.734076 6.389346-16.234274 19.713047z" p-id="14569"></path></svg>