<?xml version="1.0" standalone="no"?><!DOCTYPE svg PUBLIC "-//W3C//DTD SVG 1.1//EN" "http://www.w3.org/Graphics/SVG/1.1/DTD/svg11.dtd"><svg t="1747356859286" class="icon" viewBox="0 0 1024 1024" version="1.1" xmlns="http://www.w3.org/2000/svg" p-id="7917" xmlns:xlink="http://www.w3.org/1999/xlink" width="256" height="256"><path d="M416 32c138.048 0 251.712 132.032 121.088 378.944-41.472 78.336 41.6 128.832 133.12 152l9.792 2.368c77.952 17.984 87.168 55.04 87.936 118.016V704h127.872l-0.128-15.488c-1.92-61.888-13.696-113.472-35.136-154.88-13.632-26.304-29.44-46.272-47.552-60.352a96 96 0 1 1 18.688-64.384c34.88 20.224 63.488 52.352 85.76 95.36 26.24 50.88 40.256 112.192 42.24 183.808l0.128 15.936H960v256H64l0.064-277.376c0.832-59.584 9.408-95.808 77.312-114.56l29.888-7.616c86.272-23.872 164.8-73.6 123.648-149.504C163.84 169.152 275.328 32 416 32zM896 768H128v128h768v-128zM416 96c-112.64 0-160.896 107.136-64.832 284.48 65.92 121.472-26.752 207.04-171.84 244.096l-24.576 5.888c-24.064 5.952-26.624 10.944-26.752 51.136V704h575.936v-19.84l-0.512-22.08c-1.344-23.808-6.4-26.944-31.232-32.832l-6.592-1.536c-147.968-34.176-245.312-117.12-190.336-236.16l5.248-10.56C576.064 200.448 528.064 96 416 96z m320 288a32 32 0 1 0 0 64 32 32 0 0 0 0-64z" fill="#2c2c2c" p-id="7918"></path></svg>