<?xml version="1.0" standalone="no"?><!DOCTYPE svg PUBLIC "-//W3C//DTD SVG 1.1//EN" "http://www.w3.org/Graphics/SVG/1.1/DTD/svg11.dtd"><svg t="1744423738724" class="icon" viewBox="0 0 1024 1024" version="1.1" xmlns="http://www.w3.org/2000/svg" p-id="4348" xmlns:xlink="http://www.w3.org/1999/xlink" width="200" height="200"><path d="M149.333333 149.333333v213.333334h213.333334v-64a10.666667 10.666667 0 0 1 10.666666-10.666667h42.666667a10.666667 10.666667 0 0 1 10.666667 10.666667v85.333333a42.666667 42.666667 0 0 1-42.666667 42.666667h-96v181.333333h77.802667C386.410667 469.184 506.112 362.666667 650.666667 362.666667 809.728 362.666667 938.666667 491.605333 938.666667 650.666667S809.728 938.666667 650.666667 938.666667c-151.893333 0-276.309333-117.568-287.210667-266.666667H277.333333a53.333333 53.333333 0 0 1-53.333333-53.333333v-192H128a42.666667 42.666667 0 0 1-42.666667-42.666667V128a42.666667 42.666667 0 0 1 42.666667-42.666667h256a42.666667 42.666667 0 0 1 42.666667 42.666667v85.333333a10.666667 10.666667 0 0 1-10.666667 10.666667h-42.666667a10.666667 10.666667 0 0 1-10.666666-10.666667V149.333333H149.333333z m640 522.666667a10.666667 10.666667 0 0 1-10.666666 10.666667H682.666667v96a10.666667 10.666667 0 0 1-10.666667 10.666666h-42.666667a10.666667 10.666667 0 0 1-10.666666-10.666666V682.666667h-96a10.666667 10.666667 0 0 1-10.666667-10.666667v-42.666667a10.666667 10.666667 0 0 1 10.666667-10.666666H618.666667v-96a10.666667 10.666667 0 0 1 10.666666-10.666667h42.666667a10.666667 10.666667 0 0 1 10.666667 10.666667V618.666667h96a10.666667 10.666667 0 0 1 10.666666 10.666666v42.666667z m-362.666666-21.333333C426.666667 774.378667 526.954667 874.666667 650.666667 874.666667S874.666667 774.378667 874.666667 650.666667 774.378667 426.666667 650.666667 426.666667 426.666667 526.954667 426.666667 650.666667z" fill="#313233" p-id="4349"></path></svg>