<?xml version="1.0" standalone="no"?><!DOCTYPE svg PUBLIC "-//W3C//DTD SVG 1.1//EN" "http://www.w3.org/Graphics/SVG/1.1/DTD/svg11.dtd"><svg t="1745038305581" class="icon" viewBox="0 0 1024 1024" version="1.1" xmlns="http://www.w3.org/2000/svg" p-id="60733" xmlns:xlink="http://www.w3.org/1999/xlink" width="256" height="256"><path d="M511.9488 1024a398.1824 398.1824 0 0 1-398.1824-398.1824V284.4672a284.5184 284.5184 0 0 1 568.9344 0v341.3504a170.7008 170.7008 0 0 1-341.4016 0V398.2848a56.9344 56.9344 0 1 1 113.7664 0v227.5328a56.9856 56.9856 0 0 0 113.7664 0V284.4672a170.6496 170.6496 0 1 0-341.3504 0v341.3504a284.4672 284.4672 0 1 0 568.9344 0V56.8832a56.9344 56.9344 0 0 1 113.8176 0v568.8832A398.2336 398.2336 0 0 1 511.9488 1024z m0 0" fill="" p-id="60734"></path></svg>