<?xml version="1.0" standalone="no"?><!DOCTYPE svg PUBLIC "-//W3C//DTD SVG 1.1//EN" "http://www.w3.org/Graphics/SVG/1.1/DTD/svg11.dtd"><svg t="1740142690954" class="icon" viewBox="0 0 1024 1024" version="1.1" xmlns="http://www.w3.org/2000/svg" p-id="5893" xmlns:xlink="http://www.w3.org/1999/xlink" width="200" height="200"><path d="M801.1 87H222.9c-44.6 0-80.9 39.6-80.9 88.4v673.2c0 48.7 36.3 88.4 80.9 88.4h193.8c19.3 0 35-15.7 35-35s-15.7-35-35-35H222.9c-4.3 0-10.9-7.3-10.9-18.4V175.4c0-11 6.5-18.4 10.9-18.4h578.3c4.3 0 10.9 7.3 10.9 18.4v276.4c0 19.3 15.7 35 35 35s35-15.7 35-35V175.4c-0.1-48.8-36.4-88.4-81-88.4z" fill="#231815" p-id="5894"></path><path d="M610.1 531.5c19.3 0 35-15.7 35-35s-15.7-35-35-35h-84.3v-30h84.3c19.3 0 35-15.7 35-35s-15.7-35-35-35h-33l39.5-38.3c13.9-13.5 14.2-35.6 0.8-49.5-13.5-13.9-35.6-14.2-49.5-0.8l-77.1 74.8-77-74.8c-13.9-13.5-36-13.1-49.5 0.7-13.5 13.9-13.1 36 0.7 49.5l39.5 38.3h-33c-19.3 0-35 15.7-35 35s15.7 35 35 35h84.3v30h-84.3c-19.3 0-35 15.7-35 35s15.7 35 35 35h84.3v79c0 19.3 15.7 35 35 35s35-15.7 35-35v-79h84.3zM853.2 599.5l-74.6-45.6c-10.1-6.2-21.7-9-32.8-8.1-14.3 1.2-26.5 8.6-33.6 20.2L590.1 765.5c-3.1 5.1-4.6 11-4.4 17l5 114.5c0.4 10 5.8 19.1 14.3 24.3 4.8 2.9 10.2 4.4 15.7 4.4 4.2 0 8.5-0.9 12.5-2.7l104.2-47.6c5.4-2.5 10-6.5 13.1-11.6l122.2-199.6c7.1-11.6 8.1-25.8 2.7-39.1-4.3-10.4-12.1-19.5-22.2-25.6z m-97.6 10.6l58.1 35.5-19.6 32-58.1-35.5 19.6-32z m-51.5 214.5l-55.4 25.3-2.7-60.8 58.6-95.7 58.1 35.5-58.6 95.7z" fill="#231815" p-id="5895"></path></svg>