<?xml version="1.0" standalone="no"?><!DOCTYPE svg PUBLIC "-//W3C//DTD SVG 1.1//EN" "http://www.w3.org/Graphics/SVG/1.1/DTD/svg11.dtd"><svg t="1740037840077" class="icon" viewBox="0 0 1024 1024" version="1.1" xmlns="http://www.w3.org/2000/svg" p-id="18024" xmlns:xlink="http://www.w3.org/1999/xlink" width="200" height="200"><path d="M896 908.8a38.4 38.4 0 0 1-38.4 38.4H281.6V76.8h576A38.4 38.4 0 0 1 896 115.2v793.6z m-768 0v-793.6A38.4 38.4 0 0 1 166.4 76.8H204.8v870.4H166.4A38.4 38.4 0 0 1 128 908.8zM857.6 0h-691.2A115.2 115.2 0 0 0 51.2 115.2v793.6A115.2 115.2 0 0 0 166.4 1024h691.2a115.2 115.2 0 0 0 115.2-115.2v-793.6A115.2 115.2 0 0 0 857.6 0z" p-id="18025"></path><path d="M689.664 280.064L588.8 380.8768l-100.864-100.864-54.272 54.3232L534.4768 435.2H435.2v76.8h115.2v51.2H435.2v76.8h115.2v102.4h76.8v-102.4H742.4v-76.8h-115.2v-51.2H742.4v-76.8h-99.3024l100.864-100.864z" p-id="18026"></path></svg>