<?xml version="1.0" standalone="no"?><!DOCTYPE svg PUBLIC "-//W3C//DTD SVG 1.1//EN" "http://www.w3.org/Graphics/SVG/1.1/DTD/svg11.dtd"><svg t="1749040226343" class="icon" viewBox="0 0 1024 1024" version="1.1" xmlns="http://www.w3.org/2000/svg" p-id="18559" xmlns:xlink="http://www.w3.org/1999/xlink" width="200" height="200"><path d="M395.946667 122.88v273.066667h-273.066667v-273.066667h273.066667m34.133333-68.266667h-341.333333c-20.48 0-34.133333 13.653333-34.133334 34.133334v341.333333c0 20.48 13.653333 34.133333 34.133334 34.133333h341.333333c20.48 0 34.133333-13.653333 34.133333-34.133333v-341.333333c0-13.653333-13.653333-34.133333-34.133333-34.133334zM395.946667 621.226667v273.066666h-273.066667v-273.066666h273.066667m34.133333-68.266667h-341.333333c-20.48 0-34.133333 13.653333-34.133334 34.133333v341.333334c0 20.48 13.653333 34.133333 34.133334 34.133333h341.333333c20.48 0 34.133333-13.653333 34.133333-34.133333v-341.333334c0-20.48-13.653333-34.133333-34.133333-34.133333zM771.413333 122.88c75.093333 0 136.533333 61.44 136.533334 136.533333s-61.44 136.533333-136.533334 136.533334-136.533333-61.44-136.533333-136.533334 54.613333-136.533333 136.533333-136.533333m0-68.266667c-116.053333 0-204.8 88.746667-204.8 204.8s88.746667 204.8 204.8 204.8 204.8-88.746667 204.8-204.8-95.573333-204.8-204.8-204.8zM907.946667 621.226667v273.066666h-273.066667v-273.066666h273.066667m34.133333-68.266667h-341.333333c-20.48 0-34.133333 13.653333-34.133334 34.133333v341.333334c0 20.48 13.653333 34.133333 34.133334 34.133333h341.333333c20.48 0 34.133333-13.653333 34.133333-34.133333v-341.333334c0-20.48-20.48-34.133333-34.133333-34.133333z" p-id="18560" fill="#2c2c2c"></path></svg>