<?xml version="1.0" standalone="no"?><!DOCTYPE svg PUBLIC "-//W3C//DTD SVG 1.1//EN" "http://www.w3.org/Graphics/SVG/1.1/DTD/svg11.dtd"><svg t="1749083885432" class="icon" viewBox="0 0 1024 1024" version="1.1" xmlns="http://www.w3.org/2000/svg" p-id="5231" xmlns:xlink="http://www.w3.org/1999/xlink" width="256" height="256"><path d="M454.724 463.53L80.896 296.824a63.625 63.625 0 0 1-43.213-59.118c0-26.147 17.203-49.63 43.213-59.12l373.76-166.707a143.36 143.36 0 0 1 113.937 0L942.49 178.586a63.625 63.625 0 0 1 43.144 59.119 63.625 63.625 0 0 1-43.144 59.118L568.66 463.531a143.36 143.36 0 0 1-113.937 0z m57.003 222.96a187.05 187.05 0 0 1-78.507-17.067L66.56 498.55a48.06 48.06 0 0 1-32.085-39.936 46.694 46.694 0 0 1 23.688-44.782c16.384-9.558 37-9.558 53.385 0l366.319 170.734c21.299 9.694 46.216 9.694 67.584 0l366.728-170.871a53.59 53.59 0 0 1 53.385 0.068c16.384 9.558 25.531 26.83 23.757 44.783a48.06 48.06 0 0 1-32.154 39.936l-367.07 170.94c-24.371 11.264-51.2 17.067-78.37 17.067z m0 200.977c-27.238 0-54.067-5.803-78.507-17.067L66.56 699.46a48.06 48.06 0 0 1-32.085-39.936 46.694 46.694 0 0 1 23.688-44.783c16.384-9.557 37-9.557 53.385-0.068l366.319 170.872c21.299 9.898 46.284 9.898 67.584 0L912.179 614.74a53.59 53.59 0 0 1 53.385 0c16.384 9.558 25.531 26.897 23.757 44.852a48.06 48.06 0 0 1-32.154 39.936L590.029 870.332c-24.371 11.332-51.2 17.135-78.37 17.135z" p-id="5232" fill="#2c2c2c"></path></svg>