<?xml version="1.0" standalone="no"?><!DOCTYPE svg PUBLIC "-//W3C//DTD SVG 1.1//EN" "http://www.w3.org/Graphics/SVG/1.1/DTD/svg11.dtd"><svg t="1744193718601" class="icon" viewBox="0 0 1024 1024" version="1.1" xmlns="http://www.w3.org/2000/svg" p-id="25329" xmlns:xlink="http://www.w3.org/1999/xlink" width="256" height="256"><path d="M804.5568 512H73.216v377.9072c0 33.6384 27.2896 60.928 60.928 60.928h609.536a60.928 60.928 0 0 0 60.928-60.928V512z m73.1136 292.5568h12.2368a60.928 60.928 0 0 0 60.928-60.928V134.0928a60.928 60.928 0 0 0-60.928-60.928H280.3712a60.928 60.928 0 0 0-60.928 60.928v12.1856h532.8896a125.3888 125.3888 0 0 1 125.3888 125.44v532.8384zM743.6288 219.4432H134.0928a60.928 60.928 0 0 0-60.928 60.928v158.464h731.392V280.3712a60.928 60.928 0 0 0-60.928-60.928z m-195.072 73.1136a36.5568 36.5568 0 1 1 0 73.1648H182.8352a36.5568 36.5568 0 1 1 0-73.1648h365.7216z m146.2784 0a36.5568 36.5568 0 1 1 0 73.1648 36.5568 36.5568 0 0 1 0-73.1648z m182.8864 606.0544A125.3888 125.3888 0 0 1 752.2816 1024H125.44A125.3888 125.3888 0 0 1 0 898.6112V271.6672a125.3888 125.3888 0 0 1 125.3888-125.3888h20.8896v-20.8896A125.3888 125.3888 0 0 1 271.7184 0H898.56A125.3888 125.3888 0 0 1 1024 125.3888v626.944a125.3888 125.3888 0 0 1-125.3888 125.3888l-20.9408-0.0512v20.9408z" fill="#2c2c2c" p-id="25330"></path></svg>