<?xml version="1.0" standalone="no"?><!DOCTYPE svg PUBLIC "-//W3C//DTD SVG 1.1//EN" "http://www.w3.org/Graphics/SVG/1.1/DTD/svg11.dtd"><svg t="1744947762018" class="icon" viewBox="0 0 1024 1024" version="1.1" xmlns="http://www.w3.org/2000/svg" p-id="48210" xmlns:xlink="http://www.w3.org/1999/xlink" width="256" height="256"><path d="M471.08096 355.34336a621.79328 621.79328 0 0 0-61.5424-20.0704c-5.22752 19.584-9.61024 40.62208-13.13792 62.76096a959.84128 959.84128 0 0 1 36.85376-22.5024c11.55072-6.69184 23.83872-13.13792 37.82656-20.18816zM419.0208 720.2304c11.55584 33.44896 25.78432 61.17888 41.35424 80.39936 16.6656 20.5568 33.93536 30.89408 51.69152 30.89408 34.42176 0 68.9664-41.47712 92.92288-111.29344-30.2848-8.02816-61.5424-18.85184-92.92288-32.35328-31.49824 13.37856-62.63808 24.32512-93.04576 32.35328z m14.22848-71.8848a953.3952 953.3952 0 0 1-36.85376-22.5024c3.4048 22.016 7.7824 43.0592 13.13792 62.76096 19.70176-5.23264 40.25856-11.91936 61.66528-20.0704-14.22848-7.05024-26.3936-13.49632-37.94944-20.18816z m171.6224-344.576c-23.9616-69.81632-58.50624-111.29344-92.92288-111.29344-17.6384 0-35.03104 10.33728-51.56864 30.89408-15.56992 19.21536-29.7984 46.82752-41.35424 80.39936 30.40768 8.02816 61.66528 18.97472 92.92288 32.35328 31.2576-13.50144 62.5152-24.32512 92.92288-32.35328z m-14.22848 71.76192a1082.19392 1082.19392 0 0 1 36.85376 22.5024c-3.4048-22.016-7.7824-43.0592-13.13792-62.76096-19.584 5.22752-40.25856 11.91936-61.66528 20.0704a682.7008 682.7008 0 0 1 37.94944 20.18816z m-310.8864 160.7936c-52.17792 56.55552-73.344 106.91072-56.92416 135.3728 11.67872 20.18816 42.44992 31.38048 86.72256 31.38048 19.82464 0 42.44992-2.432 67.26144-7.296-7.7824-29.07136-13.62432-60.81536-17.26976-94.38208-29.43488-20.80256-56.31488-42.69568-79.79008-65.0752zM303.7184 512c15.68768 14.96064 33.2032 29.92128 52.17792 44.63616A824.48896 824.48896 0 0 1 354.56 512c0-14.22848 0.4864-28.94848 1.33632-44.63616A653.91616 653.91616 0 0 0 303.7184 512zM222.83264 352.1792c-16.41984 28.46208 4.864 78.81728 56.92416 135.3728 23.4752-22.25664 50.23232-44.14976 79.79008-65.07008 3.76832-33.57184 9.48736-65.31584 17.26976-94.38208-24.9344-4.864-47.4368-7.296-67.26144-7.296-44.27264-0.00512-75.04384 11.18208-86.72256 31.37536z m351.26784 52.05504c-19.33824-11.19232-40.25856-21.89312-62.15168-31.86688a743.34208 743.34208 0 0 0-62.15168 31.86688c-20.0704 11.67872-39.77216 24.08448-58.74688 37.34016-2.19136 23.9616-3.4048 47.67744-3.4048 70.4256s1.09568 46.34112 3.4048 70.4256a849.1008 849.1008 0 0 0 58.74688 37.34016 705.3056 705.3056 0 0 0 62.15168 31.86688 723.85536 723.85536 0 0 0 62.15168-31.86688 874.72128 874.72128 0 0 0 58.86976-37.34016c2.19136-24.08448 3.28192-47.67744 3.28192-70.4256 0-22.86592-1.09568-46.58176-3.28192-70.4256-19.94752-13.74208-39.168-26.02496-58.86976-37.34016zM511.9488 571.84256c-33.08544 0-59.96544-26.88-59.96544-59.96544s26.88-59.96544 59.96544-59.96544 59.96544 26.88 59.96544 59.96544c-0.00512 33.08544-26.88512 59.96544-59.96544 59.96544z m202.38848-251.04384c-19.82464 0-42.32704 2.432-67.26144 7.296 7.7824 29.18912 13.50144 60.81536 17.26976 94.38208 29.55776 20.92032 56.43776 42.69056 79.79008 65.07008 52.05504-56.55552 73.344-106.91072 56.92416-135.3728-11.55584-20.18816-42.44992-31.37536-86.72256-31.37536z" p-id="48211"></path><path d="M720.29696 512a654.82752 654.82752 0 0 0-52.17792-44.63616c0.84992 15.81056 1.33632 30.53056 1.33632 44.75904 0 14.11072-0.4864 28.8256-1.33632 44.63616 18.97472-14.83776 36.49024-29.7984 52.17792-44.75904zM511.9488 485.12c-14.71488 0-26.75712 12.04224-26.75712 26.75712s12.04224 26.75712 26.75712 26.75712 26.75712-12.04224 26.75712-26.75712c0.12288-14.71488-11.91936-26.75712-26.75712-26.75712z m152.51968 116.2752c-3.76832 33.57184-9.61024 65.31584-17.26976 94.38208 24.81152 4.864 47.4368 7.296 67.26144 7.296 44.27264 0 75.04384-11.19232 86.72256-31.38048 16.41984-28.46208-4.864-78.81728-56.92416-135.3728-23.35232 22.26176-50.10944 44.03712-79.79008 65.0752z m-111.53408 67.14368a643.49184 643.49184 0 0 0 61.5424 20.0704c5.3504-19.70176 9.728-40.74496 13.13792-62.76096a953.3952 953.3952 0 0 1-36.85376 22.5024 701.25568 701.25568 0 0 1-37.82656 20.18816z" p-id="48212"></path><path d="M512 0C229.21728 0 0 229.21728 0 512s229.21728 512 512 512 512-229.21728 512-512S794.78272 0 512 0z m0 944c-238.59712 0-432-193.40288-432-432S273.40288 80 512 80 944 273.40288 944 512 750.59712 944 512 944z" p-id="48213"></path></svg>