<?xml version="1.0" standalone="no"?><!DOCTYPE svg PUBLIC "-//W3C//DTD SVG 1.1//EN" "http://www.w3.org/Graphics/SVG/1.1/DTD/svg11.dtd"><svg t="1744958717488" class="icon" viewBox="0 0 1024 1024" version="1.1" xmlns="http://www.w3.org/2000/svg" p-id="51889" xmlns:xlink="http://www.w3.org/1999/xlink" width="256" height="256"><path d="M836.7616 532.8384c24.7296 0 45.8752 8.7552 63.3344 26.2656l72.448 72.3968c17.4592 17.5104 26.2144 38.6048 26.2144 63.3344 0 24.7808-8.704 45.8752-26.2144 63.3856l-181.0432 180.992a37.5808 37.5808 0 0 1-19.6096 10.496l-181.0432 36.2496a38.0416 38.0416 0 0 1-28.8768-5.7856 38.0416 38.0416 0 0 1-16.3328-24.4224 38.0416 38.0416 0 0 1 0-15.0016l36.2496-181.0432a37.5808 37.5808 0 0 1 10.496-19.6096l180.992-180.992a86.3232 86.3232 0 0 1 63.3856-26.2656zM796.16 35.84c38.912 0 72.0896 13.7216 99.5328 41.216A135.68 135.68 0 0 1 936.96 176.64v233.2672a38.3488 38.3488 0 1 1-76.8 0V176.64c0-42.6496-21.3504-64-64-64h-614.4c-42.6496 0-64 21.3504-64 64v665.6c0 42.6496 21.3504 64 64 64h207.8208a38.3488 38.3488 0 0 1 21.3504 70.3488 38.5024 38.5024 0 0 1-21.3504 6.4512H181.76a135.68 135.68 0 0 1-99.584-41.216A135.68 135.68 0 0 1 40.96 842.24v-665.6c0-38.912 13.7216-72.0896 41.216-99.584A135.68 135.68 0 0 1 181.76 35.84h614.4z m40.6016 573.7984a12.288 12.288 0 0 0-9.0624 3.7376l-172.8 172.8-22.6304 113.152 113.152-22.6304 172.8-172.8c6.0416-6.0416 6.0416-12.032 0-18.0736L845.824 613.376a12.288 12.288 0 0 0-9.0624-3.7376zM488.96 240.64a38.2976 38.2976 0 0 1 35.4816 53.0944 38.0416 38.0416 0 0 1-8.3456 12.4416L453.6832 368.64h35.2768a38.2976 38.2976 0 0 1 35.4816 53.1456 38.2976 38.2976 0 0 1-35.4816 23.7056L424.96 445.3888v51.2h64a38.2976 38.2976 0 0 1 35.4816 53.1456 38.2976 38.2976 0 0 1-35.4816 23.7056l-64-0.0512v89.6a38.2976 38.2976 0 0 1-53.0944 35.5328 38.2976 38.2976 0 0 1-23.7056-35.4816v-89.6512H284.16a38.2976 38.2976 0 0 1-35.4816-53.0432 38.2976 38.2976 0 0 1 35.4816-23.7056l64-0.0512v-51.2H284.16a38.2976 38.2976 0 0 1-35.4816-53.0432 38.2976 38.2976 0 0 1 35.4816-23.7056l35.2256-0.0512L257.024 306.176a38.0416 38.0416 0 0 1-10.5472-34.6112 38.2976 38.2976 0 0 1 52.3776-28.0064 38.0416 38.0416 0 0 1 12.4416 8.3456l75.264 75.264 75.264-75.264a38.0416 38.0416 0 0 1 27.136-11.264z" p-id="51890"></path></svg>