<?xml version="1.0" standalone="no"?><!DOCTYPE svg PUBLIC "-//W3C//DTD SVG 1.1//EN" "http://www.w3.org/Graphics/SVG/1.1/DTD/svg11.dtd"><svg t="1744946069225" class="icon" viewBox="0 0 1024 1024" version="1.1" xmlns="http://www.w3.org/2000/svg" p-id="4734" xmlns:xlink="http://www.w3.org/1999/xlink" width="256" height="256"><path d="M426.666667 106.666667a21.333333 21.333333 0 0 1 21.333333-21.333334h512a21.333333 21.333333 0 0 1 0 42.666667H448a21.333333 21.333333 0 0 1-21.333333-21.333333z m533.333333 789.333333H448a21.333333 21.333333 0 0 0 0 42.666667h512a21.333333 21.333333 0 0 0 0-42.666667z m0-554.666667H448a21.333333 21.333333 0 0 0 0 42.666667h512a21.333333 21.333333 0 0 0 0-42.666667z m0 298.666667H448a21.333333 21.333333 0 0 0 0 42.666667h512a21.333333 21.333333 0 0 0 0-42.666667zM245.333333 42.666667H96a53.393333 53.393333 0 0 0-53.333333 53.333333v149.333333a53.393333 53.393333 0 0 0 53.333333 53.333334h149.333333a53.393333 53.393333 0 0 0 53.333334-53.333334V96a53.393333 53.393333 0 0 0-53.333334-53.333333z m0 341.333333H96a53.393333 53.393333 0 0 0-53.333333 53.333333v149.333334a53.393333 53.393333 0 0 0 53.333333 53.333333h149.333333a53.393333 53.393333 0 0 0 53.333334-53.333333V437.333333a53.393333 53.393333 0 0 0-53.333334-53.333333z m0 341.333333H96a53.393333 53.393333 0 0 0-53.333333 53.333334v149.333333a53.393333 53.393333 0 0 0 53.333333 53.333333h149.333333a53.393333 53.393333 0 0 0 53.333334-53.333333v-149.333333a53.393333 53.393333 0 0 0-53.333334-53.333334z" fill="#2c2c2c" p-id="4735"></path></svg>