<?xml version="1.0" standalone="no"?><!DOCTYPE svg PUBLIC "-//W3C//DTD SVG 1.1//EN" "http://www.w3.org/Graphics/SVG/1.1/DTD/svg11.dtd"><svg t="1740144486653" class="icon" viewBox="0 0 1024 1024" version="1.1" xmlns="http://www.w3.org/2000/svg" p-id="7033" xmlns:xlink="http://www.w3.org/1999/xlink" width="200" height="200"><path d="M885.758721 638.987595a33.846308 33.846308 0 0 1 48.765965 0.852552c13.257181 14.067105 12.830905 36.446591-0.852552 50.087419l-82.100741 81.333445h76.644409a34.954625 34.954625 0 0 1 34.485722 35.508783 34.954625 34.954625 0 0 1-34.528349 35.508784h-89.517942v35.508784h89.517942a34.954625 34.954625 0 0 1 34.528349 35.508783 34.954625 34.954625 0 0 1-34.528349 35.508784h-89.517942v40.155191c0 19.608692-15.473816 35.508784-34.528349 35.508784a34.997253 34.997253 0 0 1-34.528349-35.508784v-40.155191H675.689951a34.997253 34.997253 0 0 1-34.528349-35.508784c0-19.608692 15.473816-35.508784 34.528349-35.508783h93.993839v-35.508784h-93.993839a34.997253 34.997253 0 0 1-34.528349-35.508784c0-19.608692 15.473816-35.508784 34.528349-35.508783h79.841479l-79.841479-81.759721a36.062942 36.062942 0 0 1-0.042628-50.002164 33.846308 33.846308 0 0 1 48.808592-0.085255l79.11681 81.248189zM789.292482 0A127.797519 127.797519 0 0 1 916.962118 127.797519v383.86146a42.627591 42.627591 0 0 1-85.255183 0V127.797519A42.542336 42.542336 0 0 0 789.292482 85.255183H149.452335A42.329198 42.329198 0 0 0 107.037882 127.499126V895.605695c0 23.35992 18.969278 42.243943 42.457081 42.243943h361.609858a42.627591 42.627591 0 0 1 0 85.255183H149.494963A127.541753 127.541753 0 0 1 21.782699 895.563067V127.456498A127.584381 127.584381 0 0 1 149.452335 0zM511.573724 767.296645c23.743568 0 43.01124 18.926651 43.01124 42.627591 0 23.53043-19.182416 42.627591-43.01124 42.627591H235.346932A42.712847 42.712847 0 0 1 192.293065 809.924236c0-23.53043 19.182416-42.627591 43.011239-42.627591h276.312048z m0-170.510366c23.743568 0 43.01124 18.926651 43.01124 42.627592 0 23.53043-19.182416 42.627591-43.01124 42.627591H235.346932A42.712847 42.712847 0 0 1 192.293065 639.413871c0-23.53043 19.182416-42.627591 43.011239-42.627592h276.312048z m96.380984-439.021563a50.726834 50.726834 0 0 1 71.529099 1.747731c18.329864 19.182416 17.605195 49.533261-1.534594 67.77787l-256.703355 245.321789a42.627591 42.627591 0 0 1-16.795271 9.889601l-75.91974 23.573058a12.788277 12.788277 0 0 1-15.559071-17.221547l33.761052-79.074182a42.627591 42.627591 0 0 1 9.932229-14.194988z" p-id="7034"></path></svg>