<?xml version="1.0" standalone="no"?><!DOCTYPE svg PUBLIC "-//W3C//DTD SVG 1.1//EN" "http://www.w3.org/Graphics/SVG/1.1/DTD/svg11.dtd"><svg t="1740036998715" class="icon" viewBox="0 0 1024 1024" version="1.1" xmlns="http://www.w3.org/2000/svg" p-id="1506" xmlns:xlink="http://www.w3.org/1999/xlink" width="200" height="200"><path d="M323.38 763.805h28.84v7.874c-2.621 5.25-2.621 13.124-2.621 18.374v41.996H323.38c-170.421 0-306.758-78.743-306.758-173.234V590.57C14 685.062 152.959 763.805 323.38 763.805z m0-120.739h28.84v7.874c-2.621 5.25-2.621 13.124-2.621 18.374v41.996H323.38c-170.421 0-306.758-78.743-306.758-173.234v-68.244C14 564.323 152.959 643.066 323.38 643.066z m0-244.103c170.421 0 306.758-78.742 306.758-173.234v68.244c0 41.996-26.218 78.743-68.168 107.615-41.95 13.124-81.278 28.873-112.74 49.87-39.328 10.5-83.9 15.75-128.472 15.75C150.337 467.207 14 388.463 14 293.972V225.73c0 97.116 138.959 173.234 309.38 173.234z m0 120.74c20.975 0 41.95 0 60.303-2.625-15.731 20.998-26.219 47.245-31.462 70.868h-28.84c-170.422 0-306.76-78.743-306.76-173.234v-68.244C14 443.584 152.96 519.702 323.382 519.702zM323.38 0c170.421 0 306.758 78.743 306.758 173.234 0 94.491-138.958 173.234-306.758 173.234-170.421 0-306.758-78.743-306.758-173.234C14 78.743 152.959 0 323.38 0zM997.2 997.409l-15.732 15.748c-15.73 13.124-49.815 13.124-65.546 0l-115.362-99.74c-41.95 26.247-89.144 41.995-141.581 41.995-146.825 0-264.809-115.489-264.809-259.85 0-144.363 117.984-259.852 264.809-259.852 146.824 0 264.808 115.49 264.808 259.851 0 52.495-15.73 99.741-41.95 139.113l115.363 99.74c18.353 15.749 15.73 44.621 0 62.995zM658.979 530.2c-91.765 0-167.8 73.494-167.8 165.36 0 91.867 76.035 165.36 167.8 165.36 91.765 0 167.8-73.493 167.8-165.36 0-91.866-73.413-165.36-167.8-165.36z m-76.034 68.244c-2.622-7.874 0-15.748 7.865-20.998 10.488-5.25 15.732-2.625 23.597 5.25l47.194 70.868 47.193-70.868c5.244-7.875 13.11-10.5 23.597-7.875 10.488 5.25 13.11 10.5 7.866 20.998l-47.194 70.869h39.328c5.244 2.625 5.244 7.874 5.244 13.124 0 5.25-2.622 7.874-5.244 13.123h-49.815v20.999h49.815c5.244 2.624 5.244 7.874 5.244 13.123 0 5.25-2.622 10.5-5.244 13.124h-49.815v52.495c0 15.749-5.244 23.623-18.353 23.623-13.11 0-20.975-7.874-20.975-23.623v-52.495H590.81c-5.243-2.625-7.865-7.874-7.865-13.124 0-5.25 2.622-10.499 7.865-13.123h49.816v-20.999H590.81c-5.243-2.624-7.865-7.874-7.865-13.123 0-5.25 2.622-7.875 7.865-13.124h39.328l-47.193-68.244z" fill="#10385C" p-id="1507"></path></svg>