<?xml version="1.0" standalone="no"?><!DOCTYPE svg PUBLIC "-//W3C//DTD SVG 1.1//EN" "http://www.w3.org/Graphics/SVG/1.1/DTD/svg11.dtd"><svg t="1742522204138" class="icon" viewBox="0 0 1024 1024" version="1.1" xmlns="http://www.w3.org/2000/svg" p-id="5748" xmlns:xlink="http://www.w3.org/1999/xlink" width="200" height="200"><path d="M169.2 833.1h218.9c14.5 0 26.3 14.2 26.3 31.8s-11.8 31.8-26.3 31.8H143c-7 0.1-13.7-3.3-18.7-9.2-5-6-7.8-14.1-7.8-22.5V260.8H90.4c-7 0-13.7-3.4-18.7-9.4S64 237.3 64 228.8V101.9c0-17.7 11.9-32 26.4-32h105c14.6 0 26.4 14.3 26.4 32v126.9c0 8.5-2.8 16.6-7.7 22.6-5 6-11.7 9.4-18.7 9.4h-26.2V494h218.9c14.5 0 26.3 14.2 26.3 31.8s-11.8 31.8-26.3 31.8H169.2v275.5zM303.7 99.9c0-17.7 10.8-32 24.1-32h606.6c13.3 0 24.1 14.3 24.1 32v126.9c0 8.5-2.5 16.6-7 22.6s-10.6 9.4-17 9.4H327.8c-6.4 0-12.5-3.4-17-9.4s-7-14.1-7-22.6V99.9z m175.7 360.4c0-17.7 10.7-32 24.1-32h430.9c13.3 0 24.1 14.3 24.1 32v126.9c0 8.5-2.5 16.6-7 22.6s-10.6 9.3-17 9.3h-431c-6.4 0-12.5-3.3-17-9.3-4.5-6-7.1-14.1-7.1-22.6V460.3z m0 339.2c0-17.6 10.7-32 24.1-32h430.9c13.3 0 24.1 14.3 24.1 32v126.9c0 8.5-2.5 16.6-7 22.6s-10.6 9.4-17 9.3h-431c-6.4 0-12.5-3.3-17.1-9.3-4.5-6-7.1-14.1-7.1-22.6V799.5z m0 0" fill="#333333" p-id="5749"></path></svg>