<?xml version="1.0" standalone="no"?><!DOCTYPE svg PUBLIC "-//W3C//DTD SVG 1.1//EN" "http://www.w3.org/Graphics/SVG/1.1/DTD/svg11.dtd"><svg t="1740108528130" class="icon" viewBox="0 0 1024 1024" version="1.1" xmlns="http://www.w3.org/2000/svg" p-id="19900" xmlns:xlink="http://www.w3.org/1999/xlink" width="200" height="200"><path d="M836.820062 0.032525h-653.202775a124.105516 124.105516 0 0 0-123.473092 124.527131v763.274519a29.482965 29.482965 0 0 0 8.853924 21.080772l105.674898 102.904282a28.880657 28.880657 0 0 0 40.264274 0l111.99913-109.017706 116.034591 112.932706a28.760196 28.760196 0 0 0 40.29439 0l116.004476-112.932706 116.094823 112.932706a28.760196 28.760196 0 0 0 40.234158 0l101.278052-98.537551a29.573311 29.573311 0 0 0 8.853924-21.080771v-650.311698l4.457077-1.204615a124.225977 124.225977 0 0 0-33.428081-244.567069z m-29.001119 883.615611l-72.276932 70.409778-116.064707-112.932707a28.66985 28.66985 0 0 0-40.234159 0l-116.034592 112.932707-116.064706-112.932707a28.730081 28.730081 0 0 0-40.264275 0l-111.969014 108.957476-76.73401-74.625933v-750.897094a66.253854 66.253854 0 0 1 67.368124-66.043047 67.669278 67.669278 0 0 1 68.783547 66.043047 64.145777 64.145777 0 0 1-20.327887 46.799313 69.988163 69.988163 0 0 1-48.636352 19.273849 29.302273 29.302273 0 0 0-20.478464 49.901198 28.609619 28.609619 0 0 0 20.508579 8.582886h622.424848z m29.001119-693.045434h-543.371953l4.698001-9.034616a121.997438 121.997438 0 0 0 0-114.438476l-4.698001-9.034617h543.371953a66.253854 66.253854 0 1 1 0 132.086094z" fill="#000000" p-id="19901"></path><path d="M233.187217 346.660645m30.115388 0l396.378742 0q30.115388 0 30.115389 30.115389l0 0q0 30.115388-30.115389 30.115388l-396.378742 0q-30.115388 0-30.115388-30.115388l0 0q0-30.115388 30.115388-30.115389Z" fill="#000000" p-id="19902"></path><path d="M235.084486 522.203244m30.115389 0l396.378742 0q30.115388 0 30.115388 30.115389l0 0q0 30.115388-30.115388 30.115388l-396.378742 0q-30.115388 0-30.115389-30.115388l0 0q0-30.115388 30.115389-30.115389Z" fill="#000000" p-id="19903"></path><path d="M235.084486 697.745843m30.115389 0l396.378742 0q30.115388 0 30.115388 30.115389l0 0q0 30.115388-30.115388 30.115388l-396.378742 0q-30.115388 0-30.115389-30.115388l0 0q0-30.115388 30.115389-30.115389Z" fill="#000000" p-id="19904"></path></svg>